<?xml version="1.0" encoding="UTF-8"?>
<svg version="1.1" xmlns="http://www.w3.org/2000/svg" width="500" height="500">
<path d="M0 0 C1.05832031 0.55429688 2.11664063 1.10859375 3.20703125 1.6796875 C11.34365004 6.13723226 18.21215516 11.74788767 25 18 C25.61311035 18.56251465 26.2262207 19.1250293 26.85791016 19.70458984 C50.85188562 41.99477855 67.85791011 74.02014027 69.12304688 107.22998047 C69.91515097 142.62833981 63.41395216 174.59852012 41 203 C40.57589844 203.5475293 40.15179688 204.09505859 39.71484375 204.65917969 C34.57392492 211.28184653 34.57392492 211.28184653 32 214 C31.34 214 30.68 214 30 214 C30 214.66 30 215.32 30 216 C29.34 216 28.68 216 28 216 C28 216.66 28 217.32 28 218 C27.34 218 26.68 218 26 218 C26 218.66 26 219.32 26 220 C6.64738489 237.66577861 -16.74684625 247.27516327 -42 253 C-43.06992187 253.2475 -44.13984375 253.495 -45.2421875 253.75 C-68.10674253 258.11670547 -92.30115238 254.84215626 -114 247 C-114.63389648 246.77441406 -115.26779297 246.54882812 -115.92089844 246.31640625 C-148.73304769 234.46989852 -175.38616233 210.01650398 -190.41015625 178.58984375 C-203.03150322 150.09102835 -206.14818907 122.72629634 -201 92 C-200.80664062 90.83210938 -200.61328125 89.66421875 -200.4140625 88.4609375 C-196.21376802 67.35036652 -185.58623316 47.47160375 -172 31 C-171.37351563 30.22011719 -170.74703125 29.44023437 -170.1015625 28.63671875 C-168.79157868 27.04237259 -167.40545222 25.51086113 -166 24 C-165.34 24 -164.68 24 -164 24 C-164 23.34 -164 22.68 -164 22 C-163.34 22 -162.68 22 -162 22 C-162 21.34 -162 20.68 -162 20 C-145.94140451 2.44526207 -120.91359582 -8.80645731 -98.1875 -14.3125 C-97.53072266 -14.47210205 -96.87394531 -14.6317041 -96.19726562 -14.79614258 C-63.05989865 -22.24546874 -29.40255118 -15.94741805 0 0 Z M-92.2578125 71.265625 C-92.54398438 71.92046875 -92.83015625 72.5753125 -93.125 73.25 C-94.50921898 76.41042918 -94.93939624 76.95959749 -98 79 C-100.54370117 79.31884766 -100.54370117 79.31884766 -103.54296875 79.4140625 C-105.15268555 79.47207031 -105.15268555 79.47207031 -106.79492188 79.53125 C-107.91447266 79.5621875 -109.03402344 79.593125 -110.1875 79.625 C-111.31865234 79.66367188 -112.44980469 79.70234375 -113.61523438 79.7421875 C-116.4099925 79.83652533 -119.20474278 79.92211652 -122 80 C-122 78.35 -122 76.7 -122 75 C-123.65 75 -125.3 75 -127 75 C-127.37318359 75.93005859 -127.37318359 75.93005859 -127.75390625 76.87890625 C-129.55525062 79.94514447 -131.82769276 80.4915027 -135.02734375 81.77734375 C-137.76461238 83.47390826 -138.59899587 85.09456517 -140 88 C-140.28416883 90.65058063 -140.4108274 93.06204396 -140.38818359 95.70849609 C-140.39344055 96.46851425 -140.39869751 97.22853241 -140.40411377 98.01158142 C-140.41728136 100.51574461 -140.40858568 103.0192682 -140.3984375 105.5234375 C-140.40045959 107.27072267 -140.40337216 109.01800702 -140.40713501 110.76528931 C-140.41155432 114.42531376 -140.40514156 118.08511833 -140.39111328 121.74511719 C-140.37404693 126.42464967 -140.38384878 131.10366495 -140.40183067 135.78317833 C-140.41270081 139.39154923 -140.40920695 142.9997987 -140.4014473 146.60817337 C-140.39945289 148.33286221 -140.40187775 150.05756225 -140.40888596 151.78223801 C-140.41655097 154.19935797 -140.40482537 156.6156557 -140.38818359 159.03271484 C-140.39425629 159.73840103 -140.40032898 160.44408722 -140.40658569 161.17115784 C-140.34248879 166.2258475 -139.47964635 169.66390902 -137 174 C-133.44030419 175.85150455 -130.47476336 176.25080191 -126.49707031 176.25396729 C-125.40358276 176.25960693 -124.31009521 176.26524658 -123.18347168 176.27105713 C-121.39882507 176.26498444 -121.39882507 176.26498444 -119.578125 176.25878906 C-117.68713074 176.26404602 -117.68713074 176.26404602 -115.75793457 176.26940918 C-112.30755248 176.27851203 -108.85729026 176.27499765 -105.40690613 176.26865101 C-101.79242637 176.26358011 -98.17795673 176.26828549 -94.56347656 176.27142334 C-88.49412192 176.27505981 -82.42481599 176.27027227 -76.35546875 176.26074219 C-69.34300457 176.24985823 -62.3306567 176.25338404 -55.31819534 176.264395 C-49.29257844 176.27347698 -43.26699651 176.2747487 -37.24137497 176.26951766 C-33.64466191 176.26640297 -30.04800348 176.26597485 -26.45129395 176.27259064 C-22.44141779 176.27945147 -18.43174151 176.26993648 -14.421875 176.25878906 C-12.63722839 176.26486176 -12.63722839 176.26486176 -10.81652832 176.27105713 C-9.72304077 176.26541748 -8.62955322 176.25977783 -7.50292969 176.25396729 C-6.55536804 176.25321323 -5.6078064 176.25245918 -4.63153076 176.25168228 C-0.61383528 175.86742579 2.13924634 174.86075366 5 172 C6.05684408 167.46045342 6.14830728 162.96778236 6.14526367 158.32983398 C6.14862228 157.58596436 6.1519809 156.84209473 6.15544128 156.07568359 C6.16489102 153.63246971 6.16689103 151.18932473 6.16796875 148.74609375 C6.17118428 147.04028801 6.17454858 145.33448254 6.17805481 143.62867737 C6.18403023 140.06046916 6.18589622 136.49228512 6.18530273 132.92407227 C6.18520092 128.35546564 6.19887961 123.78701377 6.21607494 119.21844387 C6.22719743 115.69854522 6.2292219 112.17868404 6.22869301 108.65876961 C6.22987173 106.97428921 6.23428744 105.28980781 6.24202538 103.60534477 C6.25183513 101.25037653 6.24894398 98.89574528 6.24291992 96.54077148 C6.24853943 95.84816727 6.25415894 95.15556305 6.25994873 94.44197083 C6.22614288 89.2347339 5.42040816 85.69532587 2.0625 81.6875 C-2.5139239 79.16579704 -6.88432651 79.67747067 -12 80 C-12 78.35 -12 76.7 -12 75 C-14.64 75 -17.28 75 -20 75 C-20.33 76.32 -20.66 77.64 -21 79 C-31.98725283 80.56008323 -31.98725283 80.56008323 -37 79 C-40.83749217 75.09134178 -42.66458638 70.9481191 -45 66 C-46.00582198 64.19266889 -46.00582198 64.19266889 -48 63 C-50.88199075 62.66503754 -53.54367271 62.50813682 -56.4296875 62.49609375 C-57.257034 62.48610855 -58.08438049 62.47612335 -58.9367981 62.46583557 C-60.68681844 62.45065197 -62.43692557 62.44360986 -64.18701172 62.4440918 C-66.85921153 62.43753872 -69.52767817 62.3830918 -72.19921875 62.32617188 C-73.90102898 62.31736765 -75.60285683 62.31141487 -77.3046875 62.30859375 C-78.10067352 62.2870372 -78.89665955 62.26548065 -79.71676636 62.24327087 C-86.76098127 62.32987659 -88.88514478 65.19063345 -92.2578125 71.265625 Z " fill="#3C698F" transform="translate(317,131)"/>
<path d="M0 0 C1.53333984 0.81210938 1.53333984 0.81210938 3.09765625 1.640625 C18.06486843 9.94007509 30.8336918 21.0793878 43 33 C43.59216309 33.57242432 44.18432617 34.14484863 44.79443359 34.73461914 C48.68495159 38.54313683 52.182681 42.49821915 55.5 46.8125 C55.97429443 47.42577148 56.44858887 48.03904297 56.93725586 48.67089844 C58.29913656 50.44159843 59.65105563 52.21943544 61 54 C61.63035156 54.82371094 62.26070313 55.64742188 62.91015625 56.49609375 C89.725745 93.07433184 99.6001398 139.39634493 96 184 C95.94328125 184.77891602 95.8865625 185.55783203 95.828125 186.36035156 C93.51836865 216.89900508 82.75290171 252.08879073 63 276 C62.34 276 61.68 276 61 276 C60.79117187 276.67933594 60.58234375 277.35867188 60.3671875 278.05859375 C58.54438993 281.98021252 55.98259452 284.84651773 53.125 288.0625 C52.54419678 288.7215332 51.96339355 289.38056641 51.36499023 290.05957031 C23.95688318 320.87927424 -10.91930851 341.21719614 -51 351 C-51.88300781 351.22300781 -52.76601563 351.44601562 -53.67578125 351.67578125 C-77.43001494 357.05022791 -102.161834 355.86150408 -126 352 C-126.7002832 351.89316895 -127.40056641 351.78633789 -128.12207031 351.67626953 C-164.38282115 346.05151221 -198.43880625 326.71819155 -224.54931641 301.39941406 C-225.87433663 300.12122222 -227.22314182 298.86780499 -228.57421875 297.6171875 C-249.7834142 277.46674416 -264.66765554 249.82629958 -273 222 C-273.34546875 220.98035156 -273.6909375 219.96070313 -274.046875 218.91015625 C-289.08554676 172.11675065 -281.12775393 119.9512045 -259.43212891 76.72924805 C-252.63546606 63.53188329 -244.33633092 49.77672597 -234 39 C-233.34 39 -232.68 39 -232 39 C-232 38.34 -232 37.68 -232 37 C-231.34 37 -230.68 37 -230 37 C-229.773125 36.443125 -229.54625 35.88625 -229.3125 35.3125 C-227.62449964 32.33840412 -225.53323483 30.27991135 -223 28 C-222.34 28 -221.68 28 -221 28 C-221 27.34 -221 26.68 -221 26 C-220.34 26 -219.68 26 -219 26 C-219 25.34 -219 24.68 -219 24 C-217.0610875 22.25774423 -215.12158521 20.65317294 -213.0625 19.0625 C-212.43786865 18.57740967 -211.8132373 18.09231934 -211.16967773 17.5925293 C-183.49316616 -3.55261189 -151.70920267 -17.47329392 -117.00146484 -21.75 C-115.10359365 -21.98706027 -113.2115646 -22.2695943 -111.3203125 -22.5546875 C-73.22488211 -27.2302903 -33.49845853 -18.08118515 0 0 Z M-199.59863281 53.64550781 C-200.79969883 54.8063988 -202.0191941 55.94817012 -203.2421875 57.0859375 C-230.59713254 83.12257193 -245.98080885 122.35404866 -247.22265625 159.671875 C-247.78240501 186.50061105 -242.80351242 210.92017494 -231 235 C-230.49847412 236.02383789 -230.49847412 236.02383789 -229.98681641 237.06835938 C-225.73913734 245.61772222 -220.92056216 253.48586596 -215 261 C-214.19691406 262.02996094 -213.39382812 263.05992187 -212.56640625 264.12109375 C-209.3846733 268.1478332 -209.3846733 268.1478332 -206 272 C-205.34 272 -204.68 272 -204 272 C-204 272.66 -204 273.32 -204 274 C-203.34 274 -202.68 274 -202 274 C-202 274.66 -202 275.32 -202 276 C-201.34 276 -200.68 276 -200 276 C-200 276.66 -200 277.32 -200 278 C-199.34 278 -198.68 278 -198 278 C-198 278.66 -198 279.32 -198 280 C-167.75291733 308.19940783 -127.03249343 322.17278112 -85.97558594 320.90673828 C-52.94643396 319.21473753 -22.2629745 308.13521873 4 288 C5.52947266 286.84177734 5.52947266 286.84177734 7.08984375 285.66015625 C10.63713199 282.93810022 10.63713199 282.93810022 14 280 C14 279.34 14 278.68 14 278 C14.61875 277.7525 15.2375 277.505 15.875 277.25 C18.35068687 275.79371361 18.95125002 274.62187494 20 272 C20.66 272 21.32 272 22 272 C23.78024171 269.99760846 25.43015028 267.9938005 27.0625 265.875 C27.79786987 264.92536377 27.79786987 264.92536377 28.5480957 263.95654297 C55.14309263 229.14299813 66.99532614 188.05409488 61.80859375 144.40625 C57.98636656 116.63038391 46.21569899 90.93613259 29 69 C28.32195312 68.09378906 27.64390625 67.18757813 26.9453125 66.25390625 C26.32398438 65.42761719 25.70265625 64.60132813 25.0625 63.75 C24.51722656 63.02296875 23.97195313 62.2959375 23.41015625 61.546875 C22.94480469 61.03640625 22.47945313 60.5259375 22 60 C21.34 60 20.68 60 20 60 C19.7525 59.38125 19.505 58.7625 19.25 58.125 C17.79371361 55.64931313 16.62187494 55.04874998 14 54 C14 53.34 14 52.68 14 52 C8.27026236 45.73643588 0.63719977 40.9653149 -6.31738281 36.16503906 C-7.78069464 35.15184637 -9.23136971 34.12045021 -10.6796875 33.0859375 C-67.91079748 -5.95958613 -151.39827678 6.92350136 -199.59863281 53.64550781 Z " fill="#434249" transform="translate(342,84)"/>
<path d="M0 0 C17.61105995 0 17.61105995 0 23.8125 1.125 C24.9269751 1.32186401 24.9269751 1.32186401 26.06396484 1.52270508 C40.7005048 4.308786 53.96412649 9.92957529 67 17 C68.05832031 17.55429688 69.11664063 18.10859375 70.20703125 18.6796875 C78.34365004 23.13723226 85.21215516 28.74788767 92 35 C92.91966553 35.84377197 92.91966553 35.84377197 93.85791016 36.70458984 C117.85188562 58.99477855 134.85791011 91.02014027 136.12304688 124.22998047 C136.91515097 159.62833981 130.41395216 191.59852012 108 220 C107.57589844 220.5475293 107.15179688 221.09505859 106.71484375 221.65917969 C101.57392492 228.28184653 101.57392492 228.28184653 99 231 C98.34 231 97.68 231 97 231 C97 231.66 97 232.32 97 233 C96.34 233 95.68 233 95 233 C95 233.66 95 234.32 95 235 C94.34 235 93.68 235 93 235 C93 235.66 93 236.32 93 237 C71.00660785 257.07637699 39.89645278 270.6336768 10 272 C6.7 271.67 3.4 271.34 0 271 C0 245.26 0 219.52 0 193 C32.1875 192.625 32.1875 192.625 42.33276367 192.52197266 C44.98617562 192.48676749 47.63957821 192.45084633 50.29296875 192.4140625 C50.97901688 192.40853363 51.665065 192.40300476 52.37190247 192.39730835 C54.40322325 192.38018786 56.43441812 192.34973838 58.46557617 192.31884766 C59.60919113 192.30552399 60.75280609 192.29220032 61.93107605 192.2784729 C65.178456 191.98380698 67.24282723 191.76328323 70 190 C72.00966702 185.13441816 72.28943173 180.41607231 72.25878906 175.21630859 C72.2622937 174.47229294 72.26579834 173.72827728 72.26940918 172.9617157 C72.27814921 170.52385894 72.27240613 168.08629675 72.265625 165.6484375 C72.26697359 163.94406072 72.26891574 162.23968431 72.27142334 160.53530884 C72.27436388 156.97304603 72.27011041 153.41088388 72.26074219 149.84863281 C72.24933089 145.2878846 72.25592447 140.72737137 72.26788712 136.1666317 C72.27511984 132.65101353 72.27281159 129.13545094 72.26763153 125.61983109 C72.26629984 123.93814694 72.26792587 122.25645771 72.27259064 120.57477951 C72.27768105 118.22468466 72.26991129 115.87496901 72.25878906 113.52490234 C72.26283752 112.83386917 72.26688599 112.142836 72.27105713 111.43086243 C72.22868005 106.58689713 71.73929876 102.74314676 68.234375 99.23046875 C65.48769556 97.7178743 63.369466 97.4981825 60.25 97.3125 C59.26515625 97.24675781 58.2803125 97.18101562 57.265625 97.11328125 C56.51796875 97.07589844 55.7703125 97.03851563 55 97 C55 95.35 55 93.7 55 92 C52.36 92 49.72 92 47 92 C46.67 93.65 46.34 95.3 46 97 C31.59629752 98.21864463 31.59629752 98.21864463 28.03515625 95.5 C26.81028686 93.38844064 25.92446661 91.25768497 25 89 C23.95921005 87.49059567 22.87544925 86.00988009 21.75 84.5625 C21.24984375 83.90378906 20.7496875 83.24507813 20.234375 82.56640625 C19.08914596 81.04990424 19.08914596 81.04990424 18 80 C12.06 79.67 6.12 79.34 0 79 C0 52.93 0 26.86 0 0 Z " fill="#F0893B" transform="translate(250,114)"/>
<path d="M0 0 C6.01467996 3.81642129 9.77346899 8.74794662 12.43359375 15.27734375 C13.7771303 23.06985574 12.28183171 30.13799514 7.80859375 36.75 C3.49213813 42.27459401 -0.9941576 45.41768157 -8.02734375 46.28125 C-15.22581642 46.54133468 -20.69771835 45.51626129 -26.94140625 41.90234375 C-26.94140625 41.24234375 -26.94140625 40.58234375 -26.94140625 39.90234375 C-27.55628906 39.65355469 -28.17117187 39.40476562 -28.8046875 39.1484375 C-31.32603146 37.67803764 -31.93185748 36.58857922 -33.12890625 33.96484375 C-33.45246094 33.27519531 -33.77601563 32.58554687 -34.109375 31.875 C-36.83312569 25.41728123 -36.99756594 18.77978253 -34.44140625 12.21484375 C-28.03945871 -0.68050773 -13.09573551 -4.88698762 0 0 Z " fill="#F8C755" transform="translate(283.94140625,232.09765625)"/>
<path d="M0 0 C0.96389023 4.90707752 0.96389023 4.90707752 0 8 C-2.58102485 10.30607031 -5.33518954 12.09700431 -8.2265625 13.99609375 C-14.00768934 18.17316145 -16.68759821 24.08006326 -18 31 C-19.01382759 40.07765628 -16.94195642 48.71743135 -11.1875 55.9375 C-8.18689645 59.13712317 -4.85456215 60.95934945 -1 63 C0.4783226 65.95664519 0.06032783 68.74229737 0 72 C-2.94242347 73.2672814 -4.08724991 72.96926912 -7.171875 71.8828125 C-18.21991355 66.45528264 -25.6628837 60.35749851 -30.15234375 48.44140625 C-32.71869196 38.02226907 -32.2206142 26.51006622 -27 17 C-21.74940347 8.9499148 -10.81218792 -3.3555066 0 0 Z " fill="#406A93" transform="translate(260,218)"/>
<path d="M0 0 C17.61105995 0 17.61105995 0 23.8125 1.125 C24.9269751 1.32186401 24.9269751 1.32186401 26.06396484 1.52270508 C41.50011541 4.46099273 56.88953731 10.25969154 70 19 C70 19.66 70 20.32 70 21 C70.66 21 71.32 21 72 21 C71.67 21.66 71.34 22.32 71 23 C69.35 22.34 67.7 21.68 66 21 C66 20.01 66 19.02 66 18 C63.36 17.67 60.72 17.34 58 17 C58 17.66 58 18.32 58 19 C56.68 18.67 55.36 18.34 54 18 C53.505 16.02 53.505 16.02 53 14 C48.545 13.01 48.545 13.01 44 12 C44 11.34 44 10.68 44 10 C43.01 10.33 42.02 10.66 41 11 C38.99124558 10.72428861 36.98821313 10.39764263 35 10 C35 9.01 35 8.02 35 7 C33.91460937 6.86722656 32.82921875 6.73445313 31.7109375 6.59765625 C30.26561678 6.41933746 28.82030474 6.24094831 27.375 6.0625 C26.66214844 5.97548828 25.94929688 5.88847656 25.21484375 5.79882812 C22.06269846 5.40842481 18.94155502 4.98968618 15.8125 4.4375 C13.02977257 4.00463129 10.43758241 3.89949213 7.625 3.9375 C6.75101562 3.94652344 5.87703125 3.95554687 4.9765625 3.96484375 C4.32429687 3.97644531 3.67203125 3.98804687 3 4 C3.33 4.66 3.66 5.32 4 6 C3.91037893 8.64907138 3.76160184 11.26811761 3.5703125 13.91015625 C2.99271653 22.94763678 2.84581475 31.94726162 2.86962891 41.0012207 C2.87511244 43.48850273 2.86957509 45.97561316 2.86328125 48.46289062 C2.86394019 50.05729206 2.8652175 51.65169339 2.8671875 53.24609375 C2.86516327 53.98347275 2.86313904 54.72085175 2.86105347 55.48057556 C2.87543248 58.59363284 3.00775935 61.02327804 4 64 C3.0625 66.1875 3.0625 66.1875 2 68 C2.66 68.33 3.32 68.66 4 69 C3.67 71.64 3.34 74.28 3 77 C8.28 77 13.56 77 19 77 C19 77.66 19 78.32 19 79 C12.73 79 6.46 79 0 79 C0 52.93 0 26.86 0 0 Z " fill="#E4B854" transform="translate(250,114)"/>
<path d="M0 0 C33.66 0.495 33.66 0.495 68 1 C68 26.74 68 52.48 68 79 C71.3 79 74.6 79 78 79 C78 79.33 78 79.66 78 80 C51.81481019 80.72560921 30.02570958 76.04523202 6 66 C11.27552842 64.39090637 15.35748751 66.24191731 20.25 68.5 C24.20366286 70.28813389 28.27681346 70.84646007 32.546875 71.47265625 C35 72 35 72 38 74 C38 74.66 38 75.32 38 76 C38.55864746 75.82726562 39.11729492 75.65453125 39.69287109 75.4765625 C42.28133016 74.9418882 44.29113494 75.07929002 46.9140625 75.375 C47.83960938 75.47296875 48.76515625 75.5709375 49.71875 75.671875 C50.6778125 75.78015625 51.636875 75.8884375 52.625 76 C54.53325802 76.2137249 56.44209984 76.42231961 58.3515625 76.625 C59.19541504 76.72039062 60.03926758 76.81578125 60.90869141 76.9140625 C63.06034676 77.17130992 63.06034676 77.17130992 65 76 C65.02708567 74.39592672 65.04643483 72.7917215 65.0625 71.1875 C65.07410156 70.29417969 65.08570313 69.40085937 65.09765625 68.48046875 C65.11009967 65.86586209 65.11009967 65.86586209 64 63 C64.33 62.67 64.66 62.34 65 62 C65.09803393 60.60384706 65.12798173 59.20281248 65.12939453 57.80322266 C65.13412277 56.46645981 65.13412277 56.46645981 65.13894653 55.10269165 C65.1369223 54.13294403 65.13489807 53.16319641 65.1328125 52.1640625 C65.13424759 50.67862442 65.13424759 50.67862442 65.13571167 49.16317749 C65.13639373 47.06321143 65.13453769 44.96324328 65.13037109 42.86328125 C65.12503447 39.64578508 65.1303094 36.42842923 65.13671875 33.2109375 C65.13605775 31.17447886 65.13477614 29.1380203 65.1328125 27.1015625 C65.13584885 25.65301376 65.13584885 25.65301376 65.13894653 24.17520142 C65.13579437 23.27772186 65.13264221 22.38024231 65.12939453 21.45556641 C65.12859894 20.66582428 65.12780334 19.87608215 65.12698364 19.06240845 C65.07651511 16.80066282 65.07651511 16.80066282 64 14 C63.34 13.67 62.68 13.34 62 13 C62.66 12.01 63.32 11.02 64 10 C64.39013716 8.0103005 64.73202649 6.00980131 65 4 C64.03066528 4.00785522 64.03066528 4.00785522 63.04174805 4.01586914 C50.20582234 4.1049214 37.39113223 4.03550701 24.5625 3.5625 C23.4696167 3.52326416 22.3767334 3.48402832 21.25073242 3.44360352 C16.0878824 3.23737451 10.9306186 2.96760113 5.77734375 2.58984375 C4.88136475 2.52531006 3.98538574 2.46077637 3.06225586 2.39428711 C2.38171143 2.26417236 1.70116699 2.13405762 1 2 C0.67 1.34 0.34 0.68 0 0 Z " fill="#43557D" transform="translate(182,306)"/>
<path d="M0 0 C0.99 0.33 1.98 0.66 3 1 C2.66226563 1.49628906 2.32453125 1.99257812 1.9765625 2.50390625 C-2.9461787 10.00183865 -5.04633615 17.01458827 -4 26 C-2.11473933 33.78741199 1.02256157 40.75650528 7.90625 45.2421875 C9.58982264 46.18747214 11.2935843 47.09660345 13 48 C14.4783226 50.95664519 14.06032783 53.74229737 14 57 C11.05757653 58.2672814 9.91275009 57.96926912 6.828125 56.8828125 C-4.23691703 51.4469294 -11.59359067 45.35895043 -16.1640625 33.47265625 C-17.91074049 26.21659673 -18.37378516 17.12135548 -16 10 C-15.01 10.33 -14.02 10.66 -13 11 C-13 18.59 -13 26.18 -13 34 C-12.34 34 -11.68 34 -11 34 C-10.67 35.98 -10.34 37.96 -10 40 C-9.01 40 -8.02 40 -7 40 C-6.34 38.02 -5.68 36.04 -5 34 C-5.66 33.34 -6.32 32.68 -7 32 C-7.30692816 27.6927611 -6.99395992 23.37389579 -6.8125 19.0625 C-6.78091797 17.85658203 -6.74933594 16.65066406 -6.71679688 15.40820312 C-6.67232422 14.25384766 -6.62785156 13.09949219 -6.58203125 11.91015625 C-6.54311768 10.84933838 -6.5042041 9.78852051 -6.46411133 8.69555664 C-6 6 -6 6 -4.65112305 4.13061523 C-3 3 -3 3 0 3 C0 2.01 0 1.02 0 0 Z " fill="#406088" transform="translate(246,233)"/>
<path d="M0 0 C3.56770639 3.18126119 4.37732965 6.8810733 5.5625 11.375 C5.77068359 12.11105469 5.97886719 12.84710938 6.19335938 13.60546875 C9.34777166 25.21449704 10.36659415 36.68478028 10.3125 48.6875 C10.30686035 50.00459961 10.3012207 51.32169922 10.29541016 52.67871094 C10.03708987 73.4926759 5.29447988 92.32878821 -4 111 C-4.33 111 -4.66 111 -5 111 C-5.33 108.36 -5.66 105.72 -6 103 C-5.34 103 -4.68 103 -4 103 C-3.896875 102.443125 -3.79375 101.88625 -3.6875 101.3125 C-3 99 -3 99 -1.51953125 96.7734375 C0.26070466 93.52416373 0.60512417 90.9856679 1 87.3125 C1.7502095 81.27903545 3.01628933 75.73953621 5 70 C5.66 70 6.32 70 7 70 C7 65.05 7 60.1 7 55 C7.66 55 8.32 55 9 55 C8.48187033 46.54630546 7.53304624 38.32654527 6 30 C5.76872929 28.65769001 5.5383075 27.31523357 5.30859375 25.97265625 C3.90067227 17.52010287 3.90067227 17.52010287 1.3125 9.375 C-0.01207275 5.96895577 -0.27110165 3.61468866 0 0 Z " fill="#E5824C" transform="translate(376,201)"/>
<path d="M0 0 C0.99 0.495 0.99 0.495 2 1 C2 2.32 2 3.64 2 5 C1.34 5 0.68 5 0 5 C-0.33 5.99 -0.66 6.98 -1 8 C-24.76 7.67 -48.52 7.34 -73 7 C-73 31.75 -73 56.5 -73 82 C-71.515 81.505 -71.515 81.505 -70 81 C-64.2489508 80.65815442 -58.66628936 81.01455837 -53 82 C-53 82.33 -53 82.66 -53 83 C-54.62343313 83.20061436 -56.24892348 83.3845775 -57.875 83.5625 C-59.23238281 83.71912109 -59.23238281 83.71912109 -60.6171875 83.87890625 C-65.08487335 84.03883496 -69.55163908 83.44483609 -74 83 C-74 57.26 -74 31.52 -74 5 C-41.8125 4.625 -41.8125 4.625 -31.66723633 4.52197266 C-29.01382438 4.48676749 -26.36042179 4.45084633 -23.70703125 4.4140625 C-23.02098312 4.40853363 -22.334935 4.40300476 -21.62809753 4.39730835 C-19.59677675 4.38018786 -17.56558188 4.34973838 -15.53442383 4.31884766 C-14.39080887 4.30552399 -13.24719391 4.29220032 -12.06892395 4.2784729 C-8.98517889 3.99865514 -6.82175372 3.21342797 -4 2 C-3.01 2 -2.02 2 -1 2 C-0.67 1.34 -0.34 0.68 0 0 Z " fill="#B66E4B" transform="translate(324,302)"/>
<path d="M0 0 C0.33 0 0.66 0 1 0 C1.01458252 1.1331665 1.02916504 2.26633301 1.04418945 3.43383789 C1.10296132 7.71147397 1.18017482 11.98862604 1.26245117 16.26586914 C1.295335 18.10335326 1.32347543 19.94092955 1.34643555 21.77856445 C1.54731513 37.44289764 1.99729233 54.86009942 10.61328125 68.56640625 C12.45642841 71.80099971 12.21512038 74.3429536 12 78 C12.66 78 13.32 78 14 78 C14 79.32 14 80.64 14 82 C14.66 82 15.32 82 16 82 C16 82.99 16 83.98 16 85 C17.485 85.495 17.485 85.495 19 86 C19.33 88.31 19.66 90.62 20 93 C20.66 93 21.32 93 22 93 C22.33 95.31 22.66 97.62 23 100 C15.71107555 93.11111337 11.89932643 84.10865701 8.375 74.875 C7.98820068 73.86800049 7.60140137 72.86100098 7.20288086 71.82348633 C-1.7437126 48.04742604 -3.32027715 25.02065992 0 0 Z " fill="#354E63" transform="translate(115,227)"/>
<path d="M0 0 C33.66 0.495 33.66 0.495 68 1 C68 26.74 68 52.48 68 79 C71.3 79 74.6 79 78 79 C78 79.33 78 79.66 78 80 C74.50001799 80.02934711 71.00006821 80.04691445 67.5 80.0625 C66.51773438 80.07087891 65.53546875 80.07925781 64.5234375 80.08789062 C58.91325243 80.10659124 53.54849101 79.838879 48 79 C48 78.67 48 78.34 48 78 C54.27 78 60.54 78 67 78 C66.67 53.25 66.34 28.5 66 3 C52.635 3.495 52.635 3.495 39 4 C34.13385962 3.94872841 29.34799902 3.8720318 24.5 3.625 C22.88931641 3.55925781 22.88931641 3.55925781 21.24609375 3.4921875 C18.1615203 3.35726084 15.08166451 3.18959459 12 3 C10.948125 2.93651367 9.89625 2.87302734 8.8125 2.80761719 C7.8121875 2.73446289 6.811875 2.66130859 5.78125 2.5859375 C4.88470703 2.52196777 3.98816406 2.45799805 3.06445312 2.39208984 C2.38318359 2.2627002 1.70191406 2.13331055 1 2 C0.67 1.34 0.34 0.68 0 0 Z " fill="#464658" transform="translate(182,306)"/>
<path d="M0 0 C0.99 0.33 1.98 0.66 3 1 C3.495 2.485 3.495 2.485 4 4 C-11.30102828 13.42423669 -30.60497792 23 -49 23 C-48.1875 20.5625 -48.1875 20.5625 -47 18 C-46.01 17.67 -45.02 17.34 -44 17 C-44 16.34 -44 15.68 -44 15 C-36.57142857 14.85714286 -36.57142857 14.85714286 -33 16 C-33 15.01 -33 14.02 -33 13 C-32.34 13.33 -31.68 13.66 -31 14 C-28.90951951 14.58794764 -27.17634453 15 -25 15 C-25 14.34 -25 13.68 -25 13 C-20.51508057 8.17008676 -20.51508057 8.17008676 -16.73828125 7.74609375 C-15.20622546 7.78914325 -13.67451516 7.8776328 -12.1484375 8.01953125 C-9.59159033 7.99628718 -8.25182324 7.15261308 -6 6 C-4.68 6 -3.36 6 -2 6 C-2.495 4.515 -2.495 4.515 -3 3 C-2.01 2.67 -1.02 2.34 0 2 C0 1.34 0 0.68 0 0 Z " fill="#EB6944" transform="translate(320,361)"/>
<path d="M0 0 C0.33 0 0.66 0 1 0 C1 25.74 1 51.48 1 78 C6.94 78 12.88 78 19 78 C19 78.33 19 78.66 19 79 C17.89487061 79.01981934 16.78974121 79.03963867 15.65112305 79.06005859 C11.55274587 79.13610449 7.45472421 79.22482329 3.35668945 79.31738281 C1.58267229 79.35567679 -0.19142264 79.39052895 -1.96557617 79.421875 C-4.51509399 79.46751672 -7.0640763 79.52551185 -9.61328125 79.5859375 C-10.80405022 79.60326431 -10.80405022 79.60326431 -12.01887512 79.62094116 C-15.84323908 79.72355385 -17.74596099 79.83064066 -21 82 C-20.67 80.35 -20.34 78.7 -20 77 C-13.67544468 74.89181489 -6.65516249 76.60851985 0 77 C0 51.59 0 26.18 0 0 Z " fill="#60705C" transform="translate(249,115)"/>
<path d="M0 0 C0.99 0.33 1.98 0.66 3 1 C3 8.59 3 16.18 3 24 C3.66 24 4.32 24 5 24 C5.66 27.3 6.32 30.6 7 34 C8.32 34.33 9.64 34.66 11 35 C11 35.99 11 36.98 11 38 C12.1446875 38.185625 12.1446875 38.185625 13.3125 38.375 C16 39 16 39 19 41 C19 41.99 19 42.98 19 44 C12.48860844 42.16867112 7.60637593 37.67960123 4.1875 31.9765625 C0.60101906 24.85532871 -1.16501644 19.48994859 -1.125 11.5 C-1.12886719 10.72785156 -1.13273438 9.95570313 -1.13671875 9.16015625 C-1.13099051 5.85496263 -1.05207501 3.15622502 0 0 Z " fill="#44597B" transform="translate(230,243)"/>
<path d="M0 0 C3.56770639 3.18126119 4.37732965 6.8810733 5.5625 11.375 C5.77068359 12.11105469 5.97886719 12.84710938 6.19335938 13.60546875 C9.41652422 25.46752371 10.30426156 37.05253658 10.1875 49.3125 C10.18685547 50.61767578 10.18621094 51.92285156 10.18554688 53.26757812 C10.15660998 59.59832723 9.9911693 65.74373937 9 72 C8.67 72 8.34 72 8 72 C8.01571045 70.7310791 8.01571045 70.7310791 8.03173828 69.43652344 C8.06622645 66.23829188 8.09109357 63.04015642 8.10986328 59.84179688 C8.11979919 58.46871788 8.13335261 57.09565933 8.15087891 55.72265625 C8.2605252 46.89935417 7.73987132 38.64808965 6 30 C5.74718708 28.53716355 5.49807103 27.07367976 5.25390625 25.609375 C3.85024149 17.34329503 3.85024149 17.34329503 1.3125 9.375 C-0.01207275 5.96895577 -0.27110165 3.61468866 0 0 Z " fill="#B16C42" transform="translate(376,201)"/>
<path d="M0 0 C0 0.33 0 0.66 0 1 C-4.86629862 2.4312643 -9.6439876 3.6177561 -14.6484375 4.4296875 C-20.23428279 5.34198888 -24.8689177 6.64825394 -30 9 C-30.99 9 -31.98 9 -33 9 C-33 9.66 -33 10.32 -33 11 C-36.96 11 -40.92 11 -45 11 C-34.90574806 0.90574806 -13.12262129 -0.53120056 0 0 Z " fill="#3D6979" transform="translate(237,116)"/>
<path d="M0 0 C0.66 1.32 1.32 2.64 2 4 C1.34 4 0.68 4 0 4 C0 4.66 0 5.32 0 6 C-0.66 6 -1.32 6 -2 6 C-2 6.66 -2 7.32 -2 8 C-2.66 8 -3.32 8 -4 8 C-4 8.66 -4 9.32 -4 10 C-6.21275099 11.91692867 -8.43149096 13.71971628 -10.75 15.5 C-11.70132812 16.24830078 -11.70132812 16.24830078 -12.671875 17.01171875 C-15.69083908 19.35770542 -18.52931842 21.36249178 -22 23 C-22.33 22.01 -22.66 21.02 -23 20 C-21.68 20 -20.36 20 -19 20 C-19 18.35 -19 16.7 -19 15 C-17.68 15.33 -16.36 15.66 -15 16 C-15.33 15.01 -15.66 14.02 -16 13 C-14.02 12.67 -12.04 12.34 -10 12 C-10.165 11.443125 -10.33 10.88625 -10.5 10.3125 C-11.04041351 7.81308751 -11.07082065 5.54954338 -11 3 C-8.36 3 -5.72 3 -3 3 C-3 2.34 -3 1.68 -3 1 C-2.01 0.67 -1.02 0.34 0 0 Z " fill="#E16D45" transform="translate(347,341)"/>
<path d="M0 0 C2.35900131 2.14454665 3.91146131 3.98558516 5 7 C5.0777346 9.33203812 5.08967728 11.66839059 5 14 C5.66 14 6.32 14 7 14 C7 15.32 7 16.64 7 18 C7.66 18 8.32 18 9 18 C9 18.99 9 19.98 9 21 C9.99 21.33 10.98 21.66 12 22 C12.33 24.31 12.66 26.62 13 29 C13.66 29 14.32 29 15 29 C15.33 31.31 15.66 33.62 16 36 C9.60229606 29.91806257 5.96467377 22.37588351 2.625 14.3125 C2.36219238 13.69528076 2.09938477 13.07806152 1.82861328 12.44213867 C0.12720657 8.16234094 -0.24689282 4.579274 0 0 Z " fill="#425C7A" transform="translate(122,291)"/>
<path d="M0 0 C0.33 0 0.66 0 1 0 C1 25.08 1 50.16 1 76 C2.485 75.505 2.485 75.505 4 75 C9.7510492 74.65815442 15.33371064 75.01455837 21 76 C21 76.33 21 76.66 21 77 C19.37656687 77.20061436 17.75107652 77.3845775 16.125 77.5625 C14.76761719 77.71912109 14.76761719 77.71912109 13.3828125 77.87890625 C8.91512665 78.03883496 4.44836092 77.44483609 0 77 C0 51.59 0 26.18 0 0 Z " fill="#CA866A" transform="translate(250,308)"/>
<path d="M0 0 C1.231394 3.69418201 0.64432764 6.2056261 0 10 C-1.32 10 -2.64 10 -4 10 C-3.51550098 23.15590527 -3.51550098 23.15590527 2.1875 34.625 C2.785625 35.07875 3.38375 35.5325 4 36 C3.01 36.495 3.01 36.495 2 37 C2 36.34 2 35.68 2 35 C1.38511719 34.75121094 0.77023438 34.50242187 0.13671875 34.24609375 C-2.38462521 32.77569389 -2.99045123 31.68623547 -4.1875 29.0625 C-4.51105469 28.37285156 -4.83460938 27.68320312 -5.16796875 26.97265625 C-7.58180793 21.24970421 -8.06204212 15.43323517 -6.2109375 9.44921875 C-4.58812501 5.66472092 -3.06384799 2.80047996 0 0 Z " fill="#B8A257" transform="translate(255,237)"/>
<path d="M0 0 C0.67675781 0.29132813 1.35351562 0.58265625 2.05078125 0.8828125 C6.3103668 2.76131445 10.15588616 4.80959606 13.875 7.625 C13.875 8.285 13.875 8.945 13.875 9.625 C14.535 9.625 15.195 9.625 15.875 9.625 C15.545 10.285 15.215 10.945 14.875 11.625 C13.225 10.965 11.575 10.305 9.875 9.625 C9.875 8.635 9.875 7.645 9.875 6.625 C7.235 6.295 4.595 5.965 1.875 5.625 C1.875 6.285 1.875 6.945 1.875 7.625 C0 7.4375 0 7.4375 -2.125 6.625 C-3.25 4.125 -3.25 4.125 -4.125 1.625 C-4.785 1.295 -5.445 0.965 -6.125 0.625 C-6.125 -0.035 -6.125 -0.695 -6.125 -1.375 C-7.13820313 -1.44847656 -7.13820313 -1.44847656 -8.171875 -1.5234375 C-9.06390625 -1.59820312 -9.9559375 -1.67296875 -10.875 -1.75 C-11.75671875 -1.81960937 -12.6384375 -1.88921875 -13.546875 -1.9609375 C-16.11566382 -2.37350055 -17.88341015 -3.08660957 -20.125 -4.375 C-13.24894519 -6.49845956 -6.26118446 -2.7988339 0 0 Z " fill="#B98A46" transform="translate(306.125,125.375)"/>
<path d="M0 0 C2.13093906 1.06546953 3.36587557 2.29159719 5 4 C4.67 4.66 4.34 5.32 4 6 C1.39163059 6.80756296 -1.16069989 7.49859053 -3.8125 8.125 C-4.53759766 8.30675781 -5.26269531 8.48851562 -6.00976562 8.67578125 C-9.46362921 9.51633726 -12.42575854 10 -16 10 C-15.1875 7.5625 -15.1875 7.5625 -14 5 C-13.01 4.67 -12.02 4.34 -11 4 C-11 3.34 -11 2.68 -11 2 C-3.57142857 1.85714286 -3.57142857 1.85714286 0 3 C0 2.01 0 1.02 0 0 Z " fill="#EB6E47" transform="translate(287,374)"/>
<path d="M0 0 C2.74609375 0.0390625 2.74609375 0.0390625 5.125 0.375 C5.764375 1.035 6.40375 1.695 7.0625 2.375 C9.6981041 4.93073731 10.83295774 4.67284739 14.4375 4.6875 C18.73051415 4.53212281 22.8975846 4.12654052 27.125 3.375 C26.795 4.365 26.465 5.355 26.125 6.375 C18.865 6.375 11.605 6.375 4.125 6.375 C4.125 4.725 4.125 3.075 4.125 1.375 C-0.26814793 2.38660848 -0.26814793 2.38660848 -3.25 5.5 C-3.45625 6.11875 -3.6625 6.7375 -3.875 7.375 C-6.515 7.375 -9.155 7.375 -11.875 7.375 C-4.56777108 0.06777108 -4.56777108 0.06777108 0 0 Z " fill="#4D7287" transform="translate(191.875,203.625)"/>
<path d="M0 0 C0.33 0 0.66 0 1 0 C1.00808685 0.94911758 1.01617371 1.89823517 1.02450562 2.87611389 C1.10210983 11.83618235 1.18988486 20.79610163 1.28752708 29.75597477 C1.33739723 34.36194429 1.38372791 38.9678919 1.421875 43.57397461 C1.45884528 48.02204751 1.50523672 52.46993292 1.55806351 56.91784477 C1.57654519 58.61179745 1.59167595 60.30579023 1.60334396 61.99980354 C1.62031348 64.37905049 1.64937317 66.75787383 1.68115234 69.13696289 C1.68331253 69.83180283 1.68547272 70.52664276 1.68769836 71.24253845 C1.7661289 75.86198021 2.58266345 79.64915413 4 84 C3.01 84 2.02 84 1 84 C-0.54758217 80.90483565 -0.1295989 77.64143926 -0.11352539 74.24560547 C-0.11367142 73.44552063 -0.11381744 72.64543579 -0.1139679 71.82110596 C-0.1132698 69.16977247 -0.10548221 66.51850875 -0.09765625 63.8671875 C-0.0957917 62.03158608 -0.09436797 60.19598417 -0.09336853 58.36038208 C-0.08954623 53.52376945 -0.07971839 48.68718673 -0.06866455 43.85058594 C-0.05844426 38.91732183 -0.05386958 33.98405289 -0.04882812 29.05078125 C-0.03809588 19.36717434 -0.02102289 9.68358965 0 0 Z " fill="#303F4E" transform="translate(176,221)"/>
<path d="M0 0 C0 0.99 0 1.98 0 3 C-2.31 3.33 -4.62 3.66 -7 4 C-6.67 4.33 -6.34 4.66 -6 5 C-6.33 5.66 -6.66 6.32 -7 7 C-7.598125 6.835 -8.19625 6.67 -8.8125 6.5 C-11.60998271 5.86057538 -13.40031215 5.70015607 -16 7 C-16 6.34 -16 5.68 -16 5 C-16.78375 5.66 -17.5675 6.32 -18.375 7 C-21 9 -21 9 -23 9 C-22.67 7.35 -22.34 5.7 -22 4 C-20.68 4 -19.36 4 -18 4 C-18 3.34 -18 2.68 -18 2 C-11.92972642 -0.1583195 -6.40629424 -0.20852314 0 0 Z " fill="#FBD353" transform="translate(278,233)"/>
<path d="M0 0 C0.33 0 0.66 0 1 0 C0.52013969 5.56890517 -0.29915181 10.67067568 -2 16 C-2.99 16 -3.98 16 -5 16 C-5.04898438 16.65226562 -5.09796875 17.30453125 -5.1484375 17.9765625 C-5.57242229 22.93279853 -6.15665573 27.33019451 -8 32 C-8.66 32 -9.32 32 -10 32 C-9.67 33.32 -9.34 34.64 -9 36 C-9.66 36 -10.32 36 -11 36 C-11.33 36.66 -11.66 37.32 -12 38 C-10.31519139 24.49638473 -5.9565652 12.19194834 0 0 Z " fill="#3B5771" transform="translate(128,188)"/>
<path d="M0 0 C5.99481447 0.38062314 10.22455434 1.40110309 15.59375 4.01953125 C19.17122614 5.47723662 22.80669152 5.97586292 26.6171875 6.5078125 C29 7 29 7 32 9 C32 9.66 32 10.32 32 11 C32.556875 10.814375 33.11375 10.62875 33.6875 10.4375 C36.399133 9.92448835 38.34371039 10.3359276 41 11 C41 11.66 41 12.32 41 13 C26.69218628 12.62166839 13.02654728 6.44644434 0 1 C0 0.67 0 0.34 0 0 Z " fill="#344165" transform="translate(188,371)"/>
<path d="M0 0 C2.64417055 4.52265465 2.0155182 8.01549818 1 13 C-0.82681776 18.57660159 -3.69134829 23.0279617 -8 27 C-8.99 27.33 -9.98 27.66 -11 28 C-10.6875 25.625 -10.6875 25.625 -10 23 C-9.01 22.34 -8.02 21.68 -7 21 C-7.33 20.34 -7.66 19.68 -8 19 C-7.34 19 -6.68 19 -6 19 C-6.33 17.35 -6.66 15.7 -7 14 C-6.38125 13.896875 -5.7625 13.79375 -5.125 13.6875 C-2.63473516 13.12474627 -2.63473516 13.12474627 -1 10 C-0.54398739 7.49103314 -0.54398739 7.49103314 -0.375 4.8125 C-0.30023438 3.91144531 -0.22546875 3.01039063 -0.1484375 2.08203125 C-0.09945313 1.39496094 -0.05046875 0.70789063 0 0 Z " fill="#C9A450" transform="translate(295,247)"/>
<path d="M0 0 C2.31243792 -0.02685412 4.6249627 -0.04632841 6.9375 -0.0625 C8.22527344 -0.07410156 9.51304687 -0.08570312 10.83984375 -0.09765625 C14 0 14 0 15 1 C16.40950688 1.29509061 17.83026105 1.53705963 19.25390625 1.75390625 C20.10791016 1.88603516 20.96191406 2.01816406 21.84179688 2.15429688 C22.73962891 2.28900391 23.63746094 2.42371094 24.5625 2.5625 C25.46419922 2.70107422 26.36589844 2.83964844 27.29492188 2.98242188 C29.52941433 3.32528051 31.7644227 3.66430023 34 4 C34 4.66 34 5.32 34 6 C38.95 6.99 38.95 6.99 44 8 C44 8.66 44 9.32 44 10 C44.66 10.33 45.32 10.66 46 11 C43.36 10.67 40.72 10.34 38 10 C38 9.34 38 8.68 38 8 C37.01 8.33 36.02 8.66 35 9 C32.99124558 8.72428861 30.98821313 8.39764263 29 8 C29 7.01 29 6.02 29 5 C27.91460937 4.86722656 26.82921875 4.73445313 25.7109375 4.59765625 C24.26561678 4.41933746 22.82030474 4.24094831 21.375 4.0625 C20.66214844 3.97548828 19.94929688 3.88847656 19.21484375 3.79882812 C15.12360644 3.29211525 11.06358166 2.70061753 7 2 C4.66742506 1.66140041 2.33425788 1.3267961 0 1 C0 0.67 0 0.34 0 0 Z " fill="#F6B648" transform="translate(256,116)"/>
<path d="M0 0 C0.66 0.33 1.32 0.66 2 1 C1.3125 2.875 1.3125 2.875 0 5 C-1.64551962 5.71727778 -3.31422289 6.38325228 -5 7 C-5.45375 7.495 -5.9075 7.99 -6.375 8.5 C-8 10 -8 10 -11.625 11 C-12.73875 11.33 -13.8525 11.66 -15 12 C-15.33 12.99 -15.66 13.98 -16 15 C-17.32 14.01 -18.64 13.02 -20 12 C-13.74999177 7.38563222 -7.34485057 2.71194483 0 0 Z " fill="#407382" transform="translate(190,127)"/>
<path d="M0 0 C0.88082902 5.02072539 0.88082902 5.02072539 0 8 C-3.03482835 10.84847924 -6.3948848 12.93993417 -10 15 C-10.33 14.01 -10.66 13.02 -11 12 C-10.34 12 -9.68 12 -9 12 C-9 11.34 -9 10.68 -9 10 C-8.01 10 -7.02 10 -6 10 C-4.79371992 7.66785852 -3.8345262 5.50357861 -3 3 C-6.3 3.33 -9.6 3.66 -13 4 C-11.72807637 1.45615274 -10.80051531 1.30631844 -8.1875 0.3125 C-7.50042969 0.04050781 -6.81335938 -0.23148438 -6.10546875 -0.51171875 C-3.70623504 -1.06812731 -2.3105636 -0.77364938 0 0 Z " fill="#455E77" transform="translate(260,218)"/>
<path d="M0 0 C1.1796875 1.703125 1.1796875 1.703125 1.1796875 4.703125 C3.4896875 5.033125 5.7996875 5.363125 8.1796875 5.703125 C8.1796875 6.033125 8.1796875 6.363125 8.1796875 6.703125 C4.8796875 6.703125 1.5796875 6.703125 -1.8203125 6.703125 C-1.8203125 5.053125 -1.8203125 3.403125 -1.8203125 1.703125 C-5.1203125 1.703125 -8.4203125 1.703125 -11.8203125 1.703125 C-11.8203125 3.353125 -11.8203125 5.003125 -11.8203125 6.703125 C-16.7703125 6.703125 -21.7203125 6.703125 -26.8203125 6.703125 C-22.84064793 4.71329272 -22.14356118 4.47911784 -18.0703125 5.078125 C-17.27109375 5.18898437 -16.471875 5.29984375 -15.6484375 5.4140625 C-14.74351562 5.55714844 -14.74351562 5.55714844 -13.8203125 5.703125 C-13.6759375 4.89875 -13.5315625 4.094375 -13.3828125 3.265625 C-12.8203125 0.703125 -12.8203125 0.703125 -11.8203125 -0.296875 C-10.20615028 -0.60929349 -8.57738132 -0.84818836 -6.9453125 -1.046875 C-5.61886719 -1.22476563 -5.61886719 -1.22476563 -4.265625 -1.40625 C-1.8203125 -1.296875 -1.8203125 -1.296875 0 0 Z " fill="#E99E55" transform="translate(307.8203125,203.296875)"/>
<path d="M0 0 C4.92621163 0.75315806 9.84875766 0.89403528 14.82421875 1.08984375 C15.84644531 1.13302734 16.86867188 1.17621094 17.921875 1.22070312 C20.43087163 1.32622167 22.93995818 1.42833588 25.44921875 1.52734375 C25.44921875 1.85734375 25.44921875 2.18734375 25.44921875 2.52734375 C24.34408936 2.54716309 23.23895996 2.56698242 22.1003418 2.58740234 C18.00196462 2.66344824 13.90394296 2.75216704 9.8059082 2.84472656 C8.03189104 2.88302054 6.25779611 2.9178727 4.48364258 2.94921875 C1.93412476 2.99486047 -0.61485755 3.0528556 -3.1640625 3.11328125 C-3.95790848 3.12483246 -4.75175446 3.13638367 -5.56965637 3.14828491 C-9.39402033 3.2508976 -11.29674224 3.35798441 -14.55078125 5.52734375 C-14.22078125 3.87734375 -13.89078125 2.22734375 -13.55078125 0.52734375 C-9.07299443 -0.96525186 -4.60461434 -0.85322869 0 0 Z " fill="#454F53" transform="translate(242.55078125,191.47265625)"/>
<path d="M0 0 C13.69990515 -0.54557144 26.86112306 1.02376093 40 5 C40 5.33 40 5.66 40 6 C37.60641064 5.76513841 35.21319095 5.52717102 32.8203125 5.28515625 C31.00300973 5.10141234 29.18532043 4.92143298 27.3671875 4.74609375 C21.11258945 4.11258945 21.11258945 4.11258945 20 3 C18.65984779 2.84417697 17.31241097 2.74955858 15.96484375 2.68359375 C15.15595703 2.64169922 14.34707031 2.59980469 13.51367188 2.55664062 C12.66353516 2.51732422 11.81339844 2.47800781 10.9375 2.4375 C10.08349609 2.39431641 9.22949219 2.35113281 8.34960938 2.30664062 C6.23327963 2.20023298 4.11666187 2.09958269 2 2 C1.67 2.99 1.34 3.98 1 5 C0.67 3.35 0.34 1.7 0 0 Z " fill="#B18841" transform="translate(250,114)"/>
<path d="M0 0 C0.33 0 0.66 0 1 0 C1 11.88 1 23.76 1 36 C-1.35658397 37.17829199 -2.52573236 37.04414372 -5.1328125 36.87890625 C-5.93847656 36.83056641 -6.74414062 36.78222656 -7.57421875 36.73242188 C-8.41597656 36.67634766 -9.25773438 36.62027344 -10.125 36.5625 C-11.39923828 36.48418945 -11.39923828 36.48418945 -12.69921875 36.40429688 C-14.79979124 36.27448622 -16.89994191 36.1378826 -19 36 C-18.67 35.34 -18.34 34.68 -18 34 C-16.94039062 34.08378906 -15.88078125 34.16757812 -14.7890625 34.25390625 C-13.40106375 34.35706832 -12.01304165 34.45991663 -10.625 34.5625 C-9.92632812 34.61857422 -9.22765625 34.67464844 -8.5078125 34.73242188 C-4.63471135 35.11499904 -4.63471135 35.11499904 -1 34 C-0.97291433 32.39592672 -0.95356517 30.7917215 -0.9375 29.1875 C-0.92589844 28.29417969 -0.91429687 27.40085937 -0.90234375 26.48046875 C-0.88990033 23.86586209 -0.88990033 23.86586209 -2 21 C-1.67 20.67 -1.34 20.34 -1 20 C-0.92553385 18.59556848 -0.9167009 17.18750051 -0.9375 15.78125 C-0.94523437 14.93175781 -0.95296875 14.08226562 -0.9609375 13.20703125 C-0.97382813 12.31371094 -0.98671875 11.42039062 -1 10.5 C-1.02540197 8.73964333 -1.04647147 6.97921697 -1.0625 5.21875 C-1.07410156 4.43435547 -1.08570313 3.64996094 -1.09765625 2.84179688 C-1 1 -1 1 0 0 Z " fill="#3C497A" transform="translate(248,348)"/>
<path d="M0 0 C0.495 1.485 0.495 1.485 1 3 C-1.04074305 6.57130033 -2.55753136 8.7050209 -6 11 C-8.54370117 11.22705078 -8.54370117 11.22705078 -11.54296875 11.1953125 C-13.15268555 11.18564453 -13.15268555 11.18564453 -14.79492188 11.17578125 C-16.47424805 11.15064453 -16.47424805 11.15064453 -18.1875 11.125 C-19.31865234 11.11597656 -20.44980469 11.10695312 -21.61523438 11.09765625 C-24.41036828 11.07406862 -27.20507845 11.041153 -30 11 C-30 9.35 -30 7.7 -30 6 C-31.32 5.67 -32.64 5.34 -34 5 C-32.35 5 -30.7 5 -29 5 C-29 6.65 -29 8.3 -29 10 C-21.74 10 -14.48 10 -7 10 C-6.34 8.02 -5.68 6.04 -5 4 C-2.375 1.625 -2.375 1.625 0 0 Z " fill="#435A70" transform="translate(225,200)"/>
<path d="M0 0 C0.66 0 1.32 0 2 0 C1.98839844 0.83144531 1.97679687 1.66289062 1.96484375 2.51953125 C1.95582031 3.60621094 1.94679687 4.69289062 1.9375 5.8125 C1.92589844 6.89144531 1.91429687 7.97039062 1.90234375 9.08203125 C1.86375234 12.06512169 1.86375234 12.06512169 3 15 C2.0625 17.1875 2.0625 17.1875 1 19 C1.66 19.33 2.32 19.66 3 20 C2.67 22.64 2.34 25.28 2 28 C7.28 28 12.56 28 18 28 C18 28.66 18 29.32 18 30 C12.06 29.67 6.12 29.34 0 29 C0 19.43 0 9.86 0 0 Z " fill="#F1AB45" transform="translate(251,163)"/>
<path d="M0 0 C3.96974635 0.56710662 6.76098995 1.61336101 10 4 C10.474375 4.86625 10.94875 5.7325 11.4375 6.625 C12.84218648 9.34097276 12.84218648 9.34097276 16.1875 9.8125 C17.115625 9.874375 18.04375 9.93625 19 10 C18.34 11.65 17.68 13.3 17 15 C13.3979537 13.44552062 10.83129897 11.252552 7.9375 8.625 C7.08027344 7.85414063 6.22304687 7.08328125 5.33984375 6.2890625 C3.30068076 4.29415514 1.62583289 2.33480265 0 0 Z " fill="#384668" transform="translate(149,342)"/>
<path d="M0 0 C-1.76429199 4.97209562 -4.3939166 9.43438061 -7 14 C-7.99 14 -8.98 14 -10 14 C-10.6875 11.6875 -10.6875 11.6875 -11 9 C-9.6875 7.5 -9.6875 7.5 -8 6 C-7.67 5.13375 -7.34 4.2675 -7 3.375 C-6.67 2.59125 -6.34 1.8075 -6 1 C-3 0 -3 0 0 0 Z " fill="#C87043" transform="translate(371,312)"/>
<path d="M0 0 C1.31602523 0.61754259 2.62773556 1.24428742 3.9375 1.875 C4.66839844 2.22304688 5.39929688 2.57109375 6.15234375 2.9296875 C8 4 8 4 9 6 C9.04022391 8.3329866 9.04320247 10.66706666 9 13 C6.83032311 13.95465783 5.43671207 14.14401212 3.17578125 13.3984375 C1.4315257 12.64129615 -0.28627131 11.82390802 -2 11 C-2 10.67 -2 10.34 -2 10 C1.07617188 9.70703125 1.07617188 9.70703125 4.15234375 9.4140625 C4.76207031 9.27742188 5.37179687 9.14078125 6 9 C6.33 8.34 6.66 7.68 7 7 C5.824375 6.6596875 5.824375 6.6596875 4.625 6.3125 C2 5 2 5 0.6875 2.375 C0.460625 1.59125 0.23375 0.8075 0 0 Z " fill="#3B4F69" transform="translate(251,277)"/>
<path d="M0 0 C0.33 0.99 0.66 1.98 1 3 C3.01508358 3.73323796 3.01508358 3.73323796 5 4 C5 5.32 5 6.64 5 8 C5.03480469 8.67160156 5.06960938 9.34320313 5.10546875 10.03515625 C5.32906764 15.56124314 5.32906764 15.56124314 3.5 18 C3.005 18.33 2.51 18.66 2 19 C-0.30844801 12.65176798 -0.19818283 6.70518586 0 0 Z " fill="#FCD655" transform="translate(251,247)"/>
<path d="M0 0 C0 0.33 0 0.66 0 1 C-8.59660579 3.52841347 -17.00631467 5.22484213 -26 5 C-25.01 4.67 -24.02 4.34 -23 4 C-23 3.34 -23 2.68 -23 2 C-15.26134446 -0.13480153 -7.99976044 -0.20483028 0 0 Z " fill="#457584" transform="translate(237,116)"/>
<path d="M0 0 C3 1 3 1 4.5 3.875 C4.995 4.90625 5.49 5.9375 6 7 C6.556875 7.53625 7.11375 8.0725 7.6875 8.625 C9 10 9 10 9 14 C12.31544299 15.10514766 15.20410111 15.32107631 18.6875 15.5625 C19.86699219 15.64628906 21.04648437 15.73007813 22.26171875 15.81640625 C23.16535156 15.87699219 24.06898438 15.93757812 25 16 C25 16.33 25 16.66 25 17 C10.58105865 18.21993393 10.58105865 18.21993393 6.96484375 15.4296875 C5.72528155 13.33319323 4.85728046 11.27651032 4 9 C3.25937525 7.8753476 2.49066835 6.76837402 1.6875 5.6875 C0 3 0 3 0 0 Z " fill="#BE854E" transform="translate(271,194)"/>
<path d="M0 0 C1.485 0.99 1.485 0.99 3 2 C3 2.99 3 3.98 3 5 C3.66 5.33 4.32 5.66 5 6 C5.625 8.0625 5.625 8.0625 6 10 C7.32 10.33 8.64 10.66 10 11 C10 11.99 10 12.98 10 14 C10.763125 14.12375 11.52625 14.2475 12.3125 14.375 C15 15 15 15 18 17 C18 17.99 18 18.98 18 20 C10.835626 17.98501981 5.58260188 12.49776467 2 6.1875 C0 2.36513158 0 2.36513158 0 0 Z " fill="#394760" transform="translate(231,267)"/>
<path d="M0 0 C0.99 0.99 1.98 1.98 3 3 C1.68 3 0.36 3 -1 3 C-0.67 2.01 -0.34 1.02 0 0 Z M-4 2 C-3.01 2.33 -2.02 2.66 -1 3 C-4.38772897 7.69159716 -7.78185183 12.0299782 -12 16 C-11.58539598 10.71379876 -10.71677318 7.82609003 -7 4 C-6.01 3.34 -5.02 2.68 -4 2 Z " fill="#47748C" transform="translate(149,162)"/>
<path d="M0 0 C0.66 0.33 1.32 0.66 2 1 C0.39112383 7.2892432 -2.67011737 10.44674491 -8 14 C-10.1875 14.625 -10.1875 14.625 -12 15 C-10.64763423 12.06120516 -9.10057341 9.70767089 -7 7.25 C-6.2265625 6.32960937 -6.2265625 6.32960937 -5.4375 5.390625 C-4 4 -4 4 -2 4 C-2 3.34 -2 2.68 -2 2 C-1.34 2 -0.68 2 0 2 C0 1.34 0 0.68 0 0 Z " fill="#426C85" transform="translate(155,151)"/>
<path d="M0 0 C0 0.66 0 1.32 0 2 C-0.92941406 2.06058594 -1.85882813 2.12117187 -2.81640625 2.18359375 C-11.94146885 2.79571552 -11.94146885 2.79571552 -21 4 C-21 4.66 -21 5.32 -21 6 C-22.32 5.67 -23.64 5.34 -25 5 C-17.33566406 -1.52283909 -9.53558615 -0.4876152 0 0 Z " fill="#C3A55C" transform="translate(281,231)"/>
<path d="M0 0 C0.99 0 1.98 0 3 0 C1.57139081 4.49108752 -0.93077292 7.46169316 -4.125 10.8125 C-4.59292969 11.31458984 -5.06085938 11.81667969 -5.54296875 12.33398438 C-6.68901825 13.56189455 -7.84365311 14.78178215 -9 16 C-9.33 14.68 -9.66 13.36 -10 12 C-9.34 12 -8.68 12 -8 12 C-8 11.01 -8 10.02 -8 9 C-7.34 9 -6.68 9 -6 9 C-6 8.34 -6 7.68 -6 7 C-5 6 -4 5 -3 4 C-2.67 3.01 -2.34 2.02 -2 1 C-1.34 1.33 -0.68 1.66 0 2 C0 1.34 0 0.68 0 0 Z " fill="#C36B4D" transform="translate(359,327)"/>
<path d="M0 0 C6.44769407 0.25484957 11.03173685 0.68545568 16 5 C16 5.66 16 6.32 16 7 C16.66 7 17.32 7 18 7 C17.67 7.66 17.34 8.32 17 9 C14.525 8.01 14.525 8.01 12 7 C12 6.01 12 5.02 12 4 C9.36 3.67 6.72 3.34 4 3 C4 3.66 4 4.32 4 5 C2.68 4.67 1.36 4.34 0 4 C0 2.68 0 1.36 0 0 Z " fill="#DFA345" transform="translate(304,128)"/>
<path d="M0 0 C4.11583349 3.50608038 6.90567018 8.04628837 9 13 C8.67 13.66 8.34 14.32 8 15 C7.01 14.34 6.02 13.68 5 13 C5 12.34 5 11.68 5 11 C3.35 11 1.7 11 0 11 C0 7.37 0 3.74 0 0 Z " fill="#D08D43" transform="translate(362,173)"/>
<path d="M0 0 C2.31 0 4.62 0 7 0 C3.61007185 2.88866058 0.11177313 4.25762054 -4.0625 5.75 C-5.29097656 6.19859375 -6.51945312 6.6471875 -7.78515625 7.109375 C-11 8 -11 8 -14 7 C-11.64031256 4.90250005 -10.45383006 4.03094296 -7.25 3.8125 C-6.13625 3.9053125 -6.13625 3.9053125 -5 4 C-5 3.34 -5 2.68 -5 2 C-3.35 2 -1.7 2 0 2 C0 1.34 0 0.68 0 0 Z " fill="#B25D3C" transform="translate(305,371)"/>
<path d="M0 0 C-1.52763464 4.08596252 -4.11084191 5.79826179 -7.625 8.25 C-8.62789063 8.95640625 -9.63078125 9.6628125 -10.6640625 10.390625 C-11.43492187 10.92171875 -12.20578125 11.4528125 -13 12 C-13.66 11.01 -14.32 10.02 -15 9 C-13.68 9 -12.36 9 -11 9 C-11 7.35 -11 5.7 -11 4 C-9.68 4.33 -8.36 4.66 -7 5 C-7.33 4.01 -7.66 3.02 -8 2 C-2 0 -2 0 0 0 Z " fill="#B05A3C" transform="translate(339,352)"/>
<path d="M0 0 C0.66 0.33 1.32 0.66 2 1 C0.43551329 6.6143991 -1.16395187 11.86810338 -4 17 C-4.33 17 -4.66 17 -5 17 C-5.33 14.36 -5.66 11.72 -6 9 C-5.34 9 -4.68 9 -4 9 C-3.896875 8.443125 -3.79375 7.88625 -3.6875 7.3125 C-2.86866423 4.55823422 -1.54146219 2.41272343 0 0 Z " fill="#CA7247" transform="translate(376,295)"/>
<path d="M0 0 C4.41309542 3.15221101 7.00793014 6.55463907 10 11 C9.67 11.66 9.34 12.32 9 13 C8.01 13.33 7.02 13.66 6 14 C5.54625 13.05125 5.0925 12.1025 4.625 11.125 C3.19761746 7.99686321 3.19761746 7.99686321 1 6 C0.60235737 4.01178687 0.26224651 2.01055661 0 0 Z " fill="#B5813F" transform="translate(352,160)"/>
<path d="M0 0 C3.23977621 2.61602619 4.05904973 5.52247319 5.25 9.4375 C5.60578125 10.57058594 5.9615625 11.70367187 6.328125 12.87109375 C6.96157872 15.82107297 7.05976165 17.23510902 6 20 C-0.5625 7.5 -0.5625 7.5 0 0 Z " fill="#A86B41" transform="translate(376,201)"/>
<path d="M0 0 C3.3 0 6.6 0 10 0 C10 1.65 10 3.3 10 5 C16.435 4.505 16.435 4.505 23 4 C23.99 5.485 23.99 5.485 25 7 C23.0625 7.5625 23.0625 7.5625 21 8 C20.67 7.67 20.34 7.34 20 7 C18.15108054 6.76636119 16.29511969 6.58696365 14.4375 6.4375 C13.42558594 6.35371094 12.41367187 6.26992187 11.37109375 6.18359375 C10.19740234 6.09271484 10.19740234 6.09271484 9 6 C9 4.35 9 2.7 9 1 C6.36 1 3.72 1 1 1 C0.67 2.32 0.34 3.64 0 5 C0 3.35 0 1.7 0 0 Z " fill="#9C612F" transform="translate(296,205)"/>
<path d="M0 0 C0.66 0.33 1.32 0.66 2 1 C2 2.32 2 3.64 2 5 C1.34 5 0.68 5 0 5 C-0.33 5.99 -0.66 6.98 -1 8 C-3.875 7.6875 -3.875 7.6875 -7 7 C-7.66 6.01 -8.32 5.02 -9 4 C-6.09399739 2.74335022 -4.20395416 2 -1 2 C-0.67 1.34 -0.34 0.68 0 0 Z " fill="#D37041" transform="translate(324,302)"/>
<path d="M0 0 C2.37023314 1.18511657 3.78389306 2.26292881 5.5 4.25 C3.19 3.92 0.88 3.59 -1.5 3.25 C-1.83 4.24 -2.16 5.23 -2.5 6.25 C-3.82 5.92 -5.14 5.59 -6.5 5.25 C-6.17 3.6 -5.84 1.95 -5.5 0.25 C-2.5 -0.75 -2.5 -0.75 0 0 Z " fill="#DFBB59" transform="translate(283.5,232.75)"/>
<path d="M0 0 C0.38671875 0.48984375 0.7734375 0.9796875 1.171875 1.484375 C3.62783704 3.52051447 5.09614684 3.33809646 8.25 3.25 C9.22066406 3.22421875 10.19132813 3.1984375 11.19140625 3.171875 C14.51821119 2.96828749 17.71953438 2.58319389 21 2 C20.67 2.99 20.34 3.98 20 5 C12.74 5 5.48 5 -2 5 C-1 1 -1 1 0 0 Z " fill="#4F718E" transform="translate(198,205)"/>
<path d="M0 0 C0.33 0 0.66 0 1 0 C0.52013969 5.56890517 -0.29915181 10.67067568 -2 16 C-2.99 16 -3.98 16 -5 16 C-4.49228528 10.03435204 -2.61407872 5.36190101 0 0 Z " fill="#426B7F" transform="translate(128,188)"/>
<path d="M0 0 C4.52615993 3.67832017 8.39424999 7.41086363 12 12 C9.69 11.34 7.38 10.68 5 10 C4.67 8.68 4.34 7.36 4 6 C2.68 5.67 1.36 5.34 0 5 C0 4.34 0 3.68 0 3 C-0.66 2.67 -1.32 2.34 -2 2 C-1.34 2 -0.68 2 0 2 C0 1.34 0 0.68 0 0 Z " fill="#C78E48" transform="translate(340,148)"/>
<path d="M0 0 C0 3.6408385 -1.10652063 4.94130256 -3 8 C-3.28875 8.886875 -3.5775 9.77375 -3.875 10.6875 C-5 13 -5 13 -7.625 14.3125 C-8.40875 14.539375 -9.1925 14.76625 -10 15 C-8.18050086 9.17760276 -4.27301206 4.27301206 0 0 Z " fill="#354E6E" transform="translate(242,224)"/>
<path d="M0 0 C1 2 1 2 0.25 4.75 C-0.98251685 7.95454382 -2.40772559 10.9602034 -4 14 C-4.66 14 -5.32 14 -6 14 C-5.62257767 7.83543524 -3.84129692 4.82624485 0 0 Z " fill="#3E6278" transform="translate(137,173)"/>
<path d="M0 0 C0.66 0 1.32 0 2 0 C2.33 0.66 2.66 1.32 3 2 C4.98 2 6.96 2 9 2 C9 2.33 9 2.66 9 3 C6.91798472 3.50546036 4.83432933 4.00416835 2.75 4.5 C1.58984375 4.7784375 0.4296875 5.056875 -0.765625 5.34375 C-4 6 -4 6 -8 6 C-7.67 5.01 -7.34 4.02 -7 3 C-5.35 3 -3.7 3 -2 3 C-1.67 2.34 -1.34 1.68 -1 1 C-0.67 0.67 -0.34 0.34 0 0 Z " fill="#BF5A3D" transform="translate(279,378)"/>
<path d="M0 0 C0.66 0.33 1.32 0.66 2 1 C1.47458553 8.7498635 -0.55591476 15.6450086 -3 23 C-3.33 23 -3.66 23 -4 23 C-3.55064303 17.67866746 -2.72669173 13.07215697 -1 8 C-0.56325755 5.33587107 -0.27801792 2.68750656 0 0 Z " fill="#9D5F41" transform="translate(382,273)"/>
<path d="M0 0 C1.90422728 2.85634092 2.54207215 4.67928224 3.375 7.9375 C4.51463618 11.94083736 5.58422572 14.40872296 9 17 C8.34 17.33 7.68 17.66 7 18 C7 17.34 7 16.68 7 16 C6.38769531 15.74734375 5.77539062 15.4946875 5.14453125 15.234375 C1.56121161 13.17184493 0.24512769 9.84210831 -1 6 C-0.75 2.5 -0.75 2.5 0 0 Z " fill="#A8904C" transform="translate(250,256)"/>
<path d="M0 0 C0.33 0.99 0.66 1.98 1 3 C-0.28548409 4.33929505 -1.57858155 5.67128643 -2.875 7 C-3.59429687 7.7425 -4.31359375 8.485 -5.0546875 9.25 C-7 11 -7 11 -9 11 C-9 8.875 -9 8.875 -8 6 C-5.50224217 3.74515308 -2.80198037 1.85734917 0 0 Z " fill="#48748A" transform="translate(165,144)"/>
<path d="M0 0 C0.99 0.33 1.98 0.66 3 1 C3.33 1.99 3.66 2.98 4 4 C0.37 5.98 -3.26 7.96 -7 10 C-7.33 9.01 -7.66 8.02 -8 7 C-6.02 6.67 -4.04 6.34 -2 6 C-2.33 5.01 -2.66 4.02 -3 3 C-2.01 2.67 -1.02 2.34 0 2 C0 1.34 0 0.68 0 0 Z " fill="#B35637" transform="translate(320,361)"/>
<path d="M0 0 C2.9156164 3.54039134 5.50127818 7.1626772 8 11 C5.69 10.67 3.38 10.34 1 10 C0.67 6.7 0.34 3.4 0 0 Z " fill="#3F5170" transform="translate(243,266)"/>
<path d="M0 0 C4.09215914 2.28679482 7.49950248 4.90653707 11 8 C11 8.33 11 8.66 11 9 C9.35 9 7.7 9 6 9 C5.62875 8.0409375 5.62875 8.0409375 5.25 7.0625 C4.18437567 4.81258459 4.18437567 4.81258459 1.875 4.25 C1.25625 4.1675 0.6375 4.085 0 4 C0 2.68 0 1.36 0 0 Z " fill="#B88041" transform="translate(329,139)"/>
<path d="M0 0 C1.32 0.33 2.64 0.66 4 1 C4 1.99 4 2.98 4 4 C4.66 4 5.32 4 6 4 C6.33 6.31 6.66 8.62 7 11 C4.0444623 8.24829249 1.88436685 5.58029701 0 2 C0 1.34 0 0.68 0 0 Z " fill="#384D6F" transform="translate(131,316)"/>
<path d="M0 0 C1.485 0.99 1.485 0.99 3 2 C5.73872955 2.45772063 5.73872955 2.45772063 8.6875 2.625 C9.68136719 2.69976562 10.67523438 2.77453125 11.69921875 2.8515625 C12.45847656 2.90054687 13.21773437 2.94953125 14 3 C13.67 3.66 13.34 4.32 13 5 C9.61964088 5.62599243 6.43830115 6 3 6 C3 5.34 3 4.68 3 4 C2.34 4 1.68 4 1 4 C0.67 2.68 0.34 1.36 0 0 Z " fill="#405E80" transform="translate(180,305)"/>
<path d="M0 0 C1.231394 3.69418201 0.64432764 6.2056261 0 10 C-0.99 10 -1.98 10 -3 10 C-3 9.34 -3 8.68 -3 8 C-3.66 8 -4.32 8 -5 8 C-3.8141763 4.62496331 -2.72426311 2.35277269 0 0 Z " fill="#C6A952" transform="translate(255,237)"/>
<path d="M0 0 C1.32 0.33 2.64 0.66 4 1 C0.7 3.97 -2.6 6.94 -6 10 C-6.33 9.34 -6.66 8.68 -7 8 C-4.69 5.36 -2.38 2.72 0 0 Z " fill="#3C3B3F" transform="translate(375,388)"/>
<path d="M0 0 C5.78591511 -0.10477512 11.29309366 0.00749455 17 1 C17 1.33 17 1.66 17 2 C10.78675502 2.73030908 5.15901243 3.23180249 -1 2 C-0.67 1.34 -0.34 0.68 0 0 Z " fill="#C16145" transform="translate(254,383)"/>
<path d="M0 0 C0.33 0.99 0.66 1.98 1 3 C3.00016466 4.20882096 3.00016466 4.20882096 5 5 C5 5.99 5 6.98 5 8 C1.37 6.02 -2.26 4.04 -6 2 C-3 0 -3 0 0 0 Z " fill="#37456C" transform="translate(182,363)"/>
<path d="M0 0 C0.66 0 1.32 0 2 0 C1.50130596 5.36891879 0.97772468 10.69235173 0 16 C-0.33 16 -0.66 16 -1 16 C-1.02692484 13.70839681 -1.04636124 11.41670454 -1.0625 9.125 C-1.07410156 7.84882813 -1.08570312 6.57265625 -1.09765625 5.2578125 C-1 2 -1 2 0 0 Z " fill="#476A88" transform="translate(117,224)"/>
<path d="M0 0 C0.66 0.99 1.32 1.98 2 3 C1.01 3.66 0.02 4.32 -1 5 C-1.72382467 7.05925139 -1.72382467 7.05925139 -2 9 C-4.31 9 -6.62 9 -9 9 C-8 8 -7 7 -6 6 C-5.319375 5.278125 -4.63875 4.55625 -3.9375 3.8125 C-2 2 -2 2 0 2 C0 1.34 0 0.68 0 0 Z " fill="#F89C40" transform="translate(296,200)"/>
<path d="M0 0 C0.66 1.32 1.32 2.64 2 4 C1.34 4 0.68 4 0 4 C0 4.66 0 5.32 0 6 C-0.66 6 -1.32 6 -2 6 C-2 6.66 -2 7.32 -2 8 C-2.66 8 -3.32 8 -4 8 C-4.33 8.66 -4.66 9.32 -5 10 C-5 8.02 -5 6.04 -5 4 C-4.34 4 -3.68 4 -3 4 C-2.34 3.01 -1.68 2.02 -1 1 C-0.67 0.67 -0.34 0.34 0 0 Z " fill="#B8623D" transform="translate(347,341)"/>
<path d="M0 0 C5.57142857 5.14285714 5.57142857 5.14285714 6 9 C4.35 9 2.7 9 1 9 C0.67 6.03 0.34 3.06 0 0 Z " fill="#C49C5B" transform="translate(289,237)"/>
<path d="M0 0 C0 0.66 0 1.32 0 2 C-9.22551253 6.59225513 -9.22551253 6.59225513 -15 6 C-12.61874536 3.61874536 -10.66142433 2.99813759 -7.5 1.875 C-6.5203125 1.52179688 -5.540625 1.16859375 -4.53125 0.8046875 C-2 0 -2 0 0 0 Z " fill="#302F34" transform="translate(309,393)"/>
<path d="M0 0 C0.33 0 0.66 0 1 0 C1.49940808 6.11774896 0.24900602 9.02495953 -3 14 C-3.66 14 -4.32 14 -5 14 C-3.45730076 9.27934033 -1.92205381 4.58335908 0 0 Z " fill="#2E2C30" transform="translate(393,307)"/>
<path d="M0 0 C2.64 0 5.28 0 8 0 C8 0.99 8 1.98 8 3 C5.08517222 3.80967438 3.53886783 4.21845993 0.6875 3.0625 C0.130625 2.711875 -0.42625 2.36125 -1 2 C-0.67 1.34 -0.34 0.68 0 0 Z " fill="#F2A740" transform="translate(321,139)"/>
<path d="M0 0 C0.66 0.33 1.32 0.66 2 1 C1.34 2.32 0.68 3.64 0 5 C-0.66 5 -1.32 5 -2 5 C-2.33 5.99 -2.66 6.98 -3 8 C-4.32 7.01 -5.64 6.02 -7 5 C-4.69 3.35 -2.38 1.7 0 0 Z " fill="#41697C" transform="translate(177,134)"/>
<path d="M0 0 C0.66 0.33 1.32 0.66 2 1 C0.7260411 3.03833424 -0.61061923 5.03852126 -2 7 C-2.66 7 -3.32 7 -4 7 C-4.33 7.99 -4.66 8.98 -5 10 C-5.99 10.33 -6.98 10.66 -8 11 C-8 10.34 -8 9.68 -8 9 C-7.34 9 -6.68 9 -6 9 C-5.7525 8.443125 -5.505 7.88625 -5.25 7.3125 C-3.78393985 4.60028873 -1.97010529 2.36412635 0 0 Z " fill="#2C2C30" transform="translate(370,347)"/>
<path d="M0 0 C0.66 0 1.32 0 2 0 C0.80100302 3.0831351 -0.47700477 6.06279492 -2 9 C-2.66 9 -3.32 9 -4 9 C-4.33 7.02 -4.66 5.04 -5 3 C-3.35 3 -1.7 3 0 3 C0 2.01 0 1.02 0 0 Z " fill="#EA7641" transform="translate(374,295)"/>
<path d="M0 0 C3.3 0 6.6 0 10 0 C10.33 1.32 10.66 2.64 11 4 C10.34 3.34 9.68 2.68 9 2 C6.54258463 1.49985047 6.54258463 1.49985047 4 2 C2.15684329 3.9004467 2.15684329 3.9004467 1 6 C0.67 4.02 0.34 2.04 0 0 Z " fill="#46667B" transform="translate(187,204)"/>
<path d="M0 0 C3 1 3 1 4.16796875 2.84765625 C4.50441406 3.57855469 4.84085937 4.30945313 5.1875 5.0625 C5.53167969 5.79597656 5.87585938 6.52945313 6.23046875 7.28515625 C6.48441406 7.85105469 6.73835938 8.41695312 7 9 C6.34 9.66 5.68 10.32 5 11 C4.15841464 9.73461631 3.32700252 8.46246221 2.5 7.1875 C1.80390625 6.12595703 1.80390625 6.12595703 1.09375 5.04296875 C0 3 0 3 0 0 Z " fill="#B38841" transform="translate(271,194)"/>
<path d="M0 0 C2.97 1.65 5.94 3.3 9 5 C9 5.33 9 5.66 9 6 C6.36 6 3.72 6 1 6 C1.33 4.68 1.66 3.36 2 2 C1.34 2 0.68 2 0 2 C0 1.34 0 0.68 0 0 Z " fill="#B98741" transform="translate(320,133)"/>
<path d="M0 0 C0.33 0 0.66 0 1 0 C1.66 5.61 2.32 11.22 3 17 C0 14 0 14 -0.29296875 10.64453125 C-0.25816406 9.37996094 -0.22335938 8.11539062 -0.1875 6.8125 C-0.16042969 5.54019531 -0.13335937 4.26789063 -0.10546875 2.95703125 C-0.07066406 1.98121094 -0.03585938 1.00539062 0 0 Z " fill="#3C4F6B" transform="translate(240,249)"/>
<path d="M0 0 C2.475 0.99 2.475 0.99 5 2 C4.34 3.65 3.68 5.3 3 7 C1 6 1 6 -1 4 C-0.625 1.875 -0.625 1.875 0 0 Z " fill="#F8A841" transform="translate(275,195)"/>
<path d="M0 0 C0 0.66 0 1.32 0 2 C-5.94 1.01 -5.94 1.01 -12 0 C-6.76844369 -2.61577816 -5.40261966 -1.6207859 0 0 Z " fill="#D1984C" transform="translate(298,122)"/>
<path d="M0 0 C2.13093906 1.06546953 3.36587557 2.29159719 5 4 C4.67 4.66 4.34 5.32 4 6 C1.36 5.67 -1.28 5.34 -4 5 C-3.01 4.34 -2.02 3.68 -1 3 C-0.67 2.01 -0.34 1.02 0 0 Z " fill="#E0643F" transform="translate(287,374)"/>
<path d="M0 0 C1.65 0 3.3 0 5 0 C3.25 5.75 3.25 5.75 1 8 C0.67 5.36 0.34 2.72 0 0 Z " fill="#BF6344" transform="translate(370,304)"/>
<path d="M0 0 C2.96175123 0.61277612 4.38058783 1.25372522 7 3 C7 3.99 7 4.98 7 6 C2.32307692 4.52307692 2.32307692 4.52307692 0.6875 1.875 C0.460625 1.25625 0.23375 0.6375 0 0 Z " fill="#455972" transform="translate(242,281)"/>
<path d="M0 0 C-0.78375 0.61875 -1.5675 1.2375 -2.375 1.875 C-4.96837647 3.89858661 -4.96837647 3.89858661 -7 6 C-7.66 4.68 -8.32 3.36 -9 2 C-5.5647952 -0.29013653 -4.014669 -0.17842973 0 0 Z " fill="#365B6F" transform="translate(185,211)"/>
<path d="M0 0 C0.66 0.33 1.32 0.66 2 1 C-4.28571429 6.57142857 -4.28571429 6.57142857 -8 7 C-6.88424427 3.65273281 -6.48655378 3.37920252 -3.5625 1.75 C-2.386875 1.1725 -1.21125 0.595 0 0 Z " fill="#343239" transform="translate(330,382)"/>
<path d="M0 0 C0.7425 0.0825 1.485 0.165 2.25 0.25 C2.25 0.91 2.25 1.57 2.25 2.25 C-0.72 2.91 -3.69 3.57 -6.75 4.25 C-3.42692308 0.31153846 -3.42692308 0.31153846 0 0 Z " fill="#BF6C42" transform="translate(297.75,374.75)"/>
<path d="M0 0 C0 0.66 0 1.32 0 2 C-2.64 2 -5.28 2 -8 2 C-8 2.66 -8 3.32 -8 4 C-9.32 3.34 -10.64 2.68 -12 2 C-7.82262526 0.40861915 -4.46839215 -0.21278058 0 0 Z " fill="#E8734B" transform="translate(313,369)"/>
<path d="M0 0 C2.475 0.495 2.475 0.495 5 1 C5.33 3.31 5.66 5.62 6 8 C3.33264727 5.51047079 1.44253657 3.36591866 0 0 Z " fill="#3B5067" transform="translate(138,328)"/>
<path d="M0 0 C1.44560748 4.56237823 0.40342867 7.49425532 -1 12 C-1.99 12.495 -1.99 12.495 -3 13 C-2.343621 8.51474352 -1.29925791 4.33085971 0 0 Z " fill="#362F37" transform="translate(400,287)"/>
<path d="M0 0 C1.5 1.0625 1.5 1.0625 3 3 C3.1875 6.6875 3.1875 6.6875 3 10 C0.64551835 7.44931155 0.01672076 6.28982642 -0.1875 2.75 C-0.125625 1.8425 -0.06375 0.935 0 0 Z " fill="#BC7B4B" transform="translate(376,201)"/>
<path d="M0 0 C0.33 0 0.66 0 1 0 C0.67 2.97 0.34 5.94 0 9 C-0.99 9 -1.98 9 -3 9 C-2.44271087 5.65626525 -1.64826111 2.96687001 0 0 Z " fill="#3B5972" transform="translate(128,188)"/>
<path d="M0 0 C0.99 0 1.98 0 3 0 C2.34 1.65 1.68 3.3 1 5 C0.01 5 -0.98 5 -2 5 C-2.33 3.68 -2.66 2.36 -3 1 C-2.01 1.33 -1.02 1.66 0 2 C0 1.34 0 0.68 0 0 Z " fill="#C05C38" transform="translate(359,327)"/>
<path d="M0 0 C1.65 0 3.3 0 5 0 C5 0.66 5 1.32 5 2 C4.01 2.495 4.01 2.495 3 3 C2.67 3.99 2.34 4.98 2 6 C1.34 6 0.68 6 0 6 C0 4.02 0 2.04 0 0 Z " fill="#F27F36" transform="translate(252,310)"/>
<path d="M0 0 C1.32 0.33 2.64 0.66 4 1 C4.33 3.31 4.66 5.62 5 8 C4.01 8.495 4.01 8.495 3 9 C2.01 6.03 1.02 3.06 0 0 Z " fill="#3C4F6C" transform="translate(125,304)"/>
<path d="M0 0 C2.18975773 3.28463659 2.99806563 6.20696275 4 10 C3.01 10 2.02 10 1 10 C-0.60725635 6.78548731 -0.05748185 3.56387464 0 0 Z " fill="#3A5364" transform="translate(176,295)"/>
<path d="M0 0 C2.15377564 2.62198774 3.40072174 4.64404172 4 8 C3.01 8.33 2.02 8.66 1 9 C-0.4783226 6.04335481 -0.06032783 3.25770263 0 0 Z " fill="#A9743B" transform="translate(371,188)"/>
<path d="M0 0 C3.05882701 1.52941351 3.68951234 3.94219546 5 7 C4.67 7.66 4.34 8.32 4 9 C3.01 8.34 2.02 7.68 1 7 C0.3125 3.375 0.3125 3.375 0 0 Z " fill="#A06F3C" transform="translate(366,179)"/>
<path d="M0 0 C1.32 0 2.64 0 4 0 C4.33 0.99 4.66 1.98 5 3 C4.01 3 3.02 3 2 3 C2 3.66 2 4.32 2 5 C0.68 4.67 -0.64 4.34 -2 4 C-2 3.34 -2 2.68 -2 2 C-1.34 2 -0.68 2 0 2 C0 1.34 0 0.68 0 0 Z " fill="#EF6F42" transform="translate(330,352)"/>
<path d="M0 0 C1.32 0.33 2.64 0.66 4 1 C4 1.99 4 2.98 4 4 C2.68 4 1.36 4 0 4 C0 2.68 0 1.36 0 0 Z " fill="#EA7243" transform="translate(352,329)"/>
<path d="M0 0 C1.8125 0.125 1.8125 0.125 4 1 C5.75 4.0625 5.75 4.0625 7 7 C4.13302508 5.71480435 2.02392288 4.42870746 0 2 C0 1.34 0 0.68 0 0 Z " fill="#434F65" transform="translate(237,277)"/>
<path d="M0 0 C3.93673644 1.31224548 6.22719294 2.91910327 9 6 C7.35 5.67 5.7 5.34 4 5 C4 4.34 4 3.68 4 3 C2.68 2.34 1.36 1.68 0 1 C0 0.67 0 0.34 0 0 Z " fill="#EFD068" transform="translate(254,268)"/>
<path d="M0 0 C0.33 0 0.66 0 1 0 C1.33 2.97 1.66 5.94 2 9 C1.01 9.495 1.01 9.495 0 10 C0 8.68 0 7.36 0 6 C-0.99 5.67 -1.98 5.34 -3 5 C-2.03114628 3.31503702 -1.03013277 1.64821244 0 0 Z " fill="#EF8E46" transform="translate(380,218)"/>
<path d="M0 0 C0.66 0.33 1.32 0.66 2 1 C1.67 1.66 1.34 2.32 1 3 C0.34 3 -0.32 3 -1 3 C-1.66 4.65 -2.32 6.3 -3 8 C-3.99 7.67 -4.98 7.34 -6 7 C-5.34 6.01 -4.68 5.02 -4 4 C-3.34 4 -2.68 4 -2 4 C-2 3.34 -2 2.68 -2 2 C-1.34 2 -0.68 2 0 2 C0 1.34 0 0.68 0 0 Z " fill="#3A5864" transform="translate(155,151)"/>
<path d="M0 0 C0.33 0.99 0.66 1.98 1 3 C-0.65 4.32 -2.3 5.64 -4 7 C-4.33 6.01 -4.66 5.02 -5 4 C-3.35 2.68 -1.7 1.36 0 0 Z " fill="#4C7E93" transform="translate(165,144)"/>
<path d="M0 0 C0.66 1.32 1.32 2.64 2 4 C-0.31 4.33 -2.62 4.66 -5 5 C-3.35 3.35 -1.7 1.7 0 0 Z " fill="#4F8397" transform="translate(172,139)"/>
<path d="M0 0 C0.33 0.99 0.66 1.98 1 3 C-0.3125 4.5 -0.3125 4.5 -2 6 C-2.99 6 -3.98 6 -5 6 C-4.67 4.68 -4.34 3.36 -4 2 C-2.68 2 -1.36 2 0 2 C0 1.34 0 0.68 0 0 Z " fill="#EF6F3D" transform="translate(344,342)"/>
</svg>
